<svg width="256" height="256" viewBox="0 0 256 256" fill="none" xmlns="http://www.w3.org/2000/svg"><defs><linearGradient id="e" x1="0%" y1="0%" x2="100%" y2="100%"><stop offset="0%" stop-color="#FF9A9E"/><stop offset="50%" stop-color="#FECFEF"/><stop offset="100%" stop-color="#FECFEF"/></linearGradient><linearGradient id="f" x1="100%" y1="0%" x2="0%" y2="100%"><stop offset="0%" stop-color="#A8EDEA"/><stop offset="50%" stop-color="#FED6E3"/><stop offset="100%" stop-color="#FFD3A5"/></linearGradient><filter id="c" x="-100%" y="-100%" width="300%" height="300%"><feGaussianBlur stdDeviation="8" result="coloredBlur"/><feColorMatrix values="1 0 0 0 0 0 1 0 0 0 0 0 1 0 0 0 0 0 2 0"/><feMerge><feMergeNode in="coloredBlur"/><feMergeNode in="SourceGraphic"/></feMerge></filter><filter id="d" x="-50%" y="-50%" width="200%" height="200%"><feGaussianBlur stdDeviation="2" result="blur"/><feOffset dx="1" dy="1" result="offset"/><feFlood flood-color="#4ECDC4" flood-opacity=".3"/><feComposite in2="offset" operator="in"/><feComposite in2="SourceGraphic"/></filter><radialGradient id="a" cx="50%" cy="50%" r="50%"><stop offset="0%" stop-color="#FF6B6B"/><stop offset="30%" stop-color="#4ECDC4"/><stop offset="60%" stop-color="#45B7D1"/><stop offset="100%" stop-color="#96CEB4"/></radialGradient><pattern id="b" x="0" y="0" width="24" height="24" patternUnits="userSpaceOnUse"><path fill="rgba(255,255,255,0.1)" d="M4 4h1v1H4z"/><path fill="rgba(255,255,255,0.08)" d="M12 8h1v1h-1z"/><path fill="rgba(255,255,255,0.06)" d="M8 16h1v1H8z"/><path fill="rgba(255,255,255,0.09)" d="M20 12h1v1h-1z"/></pattern></defs><rect width="256" height="256" rx="64" fill="url(#a)" opacity=".1"/><rect width="256" height="256" rx="64" fill="#0A0E27"/><rect width="256" height="256" rx="64" fill="url(#b)" opacity=".4"/><g transform="translate(128 128)"><path stroke="url(#a)" stroke-width="3" filter="url(#c)" d="m-40-23 20-17h40l20 17v46L20 40h-40l-20-17z"/><circle r="15" fill="url(#a)" opacity=".6" filter="url(#d)"/><circle r="25" stroke="#4ECDC4" stroke-dasharray="5,5" opacity=".6"><animateTransform attributeName="transform" type="rotate" values="0;360" dur="20s" repeatCount="indefinite"/></circle><circle r="35" stroke="#FF6B6B" stroke-dasharray="3,7" opacity=".4"><animateTransform attributeName="transform" type="rotate" values="360;0" dur="30s" repeatCount="indefinite"/></circle><text y="6" font-family="'SF Mono', Monaco, monospace" font-size="20" font-weight="bold" fill="#fff" text-anchor="middle" filter="url(#c)">
    ⊕
</text></g><g transform="translate(40 60)"><rect width="80" height="40" rx="20" fill="rgba(255,255,255,0.1)" stroke="rgba(255,255,255,0.2)" filter="url(#d)"/><g fill="#FF6B6B"><circle cx="15" cy="20" r="3" opacity=".8"><animate attributeName="opacity" values="0.3;1;0.3" dur="2s" repeatCount="indefinite"/></circle><circle cx="25" cy="20" r="3" opacity=".6"><animate attributeName="opacity" values="0.3;1;0.3" dur="2s" begin="0.3s" repeatCount="indefinite"/></circle><circle cx="35" cy="20" r="3" opacity=".4"><animate attributeName="opacity" values="0.3;1;0.3" dur="2s" begin="0.6s" repeatCount="indefinite"/></circle></g><g transform="translate(45 15)" fill="#4ECDC4"><rect width="6" height="6" rx="1" opacity=".7"><animate attributeName="opacity" values="0.4;0.9;0.4" dur="3s" repeatCount="indefinite"/></rect><rect x="8" width="6" height="6" rx="1" opacity=".5"><animate attributeName="opacity" values="0.4;0.9;0.4" dur="3s" begin="1s" repeatCount="indefinite"/></rect><rect x="16" width="6" height="6" rx="1" opacity=".6"><animate attributeName="opacity" values="0.4;0.9;0.4" dur="3s" begin="2s" repeatCount="indefinite"/></rect></g><text x="40" y="55" font-family="'SF Mono', Monaco, monospace" font-size="12" font-weight="700" fill="#FF9A9E" text-anchor="middle">
    v7
</text></g><g transform="translate(136 160)"><rect width="80" height="40" rx="20" fill="rgba(255,255,255,0.1)" stroke="rgba(255,255,255,0.2)" filter="url(#d)"/><g fill="#A8EDEA"><path opacity=".8" d="m15 15 5-5 5 5-5 10z"><animateTransform attributeName="transform" type="rotate" values="0 20 17.5;360 20 17.5" dur="4s" repeatCount="indefinite"/></path><path opacity=".6" d="m30 15 5-5 5 5-5 10z"><animateTransform attributeName="transform" type="rotate" values="360 35 17.5;0 35 17.5" dur="4s" repeatCount="indefinite"/></path></g><g transform="translate(45 15)" fill="#4ECDC4"><rect width="6" height="6" rx="1" opacity=".7"><animate attributeName="opacity" values="0.4;0.9;0.4" dur="3s" repeatCount="indefinite"/></rect><rect x="8" width="6" height="6" rx="1" opacity=".5"><animate attributeName="opacity" values="0.4;0.9;0.4" dur="3s" begin="1s" repeatCount="indefinite"/></rect><rect x="16" width="6" height="6" rx="1" opacity=".6"><animate attributeName="opacity" values="0.4;0.9;0.4" dur="3s" begin="2s" repeatCount="indefinite"/></rect></g><text x="40" y="-5" font-family="'SF Mono', Monaco, monospace" font-size="12" font-weight="700" fill="#A8EDEA" text-anchor="middle">
    v4
</text></g><g filter="url(#c)"><path d="m120 80 16 40" stroke="url(#e)" stroke-width="4" stroke-linecap="round" opacity=".8"><animate attributeName="stroke-dasharray" values="0,100;20,80;0,100" dur="3s" repeatCount="indefinite"/></path><path d="m136 136-16 40" stroke="url(#f)" stroke-width="4" stroke-linecap="round" opacity=".8"><animate attributeName="stroke-dasharray" values="0,100;20,80;0,100" dur="3s" begin="1.5s" repeatCount="indefinite"/></path><circle r="2" fill="#FF6B6B"><animateMotion dur="3s" repeatCount="indefinite"><mpath href="#g"/></animateMotion></circle><circle r="2" fill="#4ECDC4"><animateMotion dur="3s" begin="1.5s" repeatCount="indefinite"><mpath href="#h"/></animateMotion></circle></g><defs><path id="g" d="m120 80 16 40"/><path id="h" d="m136 136-16 40"/></defs><g transform="translate(128 225)"><text font-family="'SF Pro Display', -apple-system, BlinkMacSystemFont, sans-serif" font-size="18" font-weight="800" fill="url(#a)" text-anchor="middle" filter="url(#c)">
    UUIDv47
</text><circle cx="35" cy="-3" r="2" fill="#4ECDC4" opacity=".6"><animate attributeName="opacity" values="0.3;1;0.3" dur="2s" repeatCount="indefinite"/></circle></g><g opacity=".3"><circle cx="40" cy="40" r="2" fill="#FF6B6B"/><circle cx="216" cy="40" r="2" fill="#4ECDC4"/><circle cx="40" cy="216" r="2" fill="#45B7D1"/><circle cx="216" cy="216" r="2" fill="#96CEB4"/></g></svg>
